<?xml version="1.0" encoding="utf-8"?>
<!-- Generator: Adobe Illustrator 25.0.0, SVG Export Plug-In . SVG Version: 6.00 Build 0)  -->
<svg version="1.1" xmlns="http://www.w3.org/2000/svg" xmlns:xlink="http://www.w3.org/1999/xlink" x="0px" y="0px"
	 viewBox="272 271 1504 1504" style="enable-background:new 272 271 1504 1504;" xml:space="preserve">
<style type="text/css">
	.st0{fill:#25856A;}
	.st1{display:none;}
	.st2{display:inline;fill:#25856A;}
</style>
<g id="Слой_6">
</g>
<g id="Слой_3">
	<g>
		<path class="st0" d="M1202.27,600.58c-0.02,0.02-0.03,0.03-0.05,0.05c-0.01-0.02-0.03-0.04-0.05-0.05
			c-21.19,18.86-207.04,188.94-207.04,351.07c0,64.58,37.62,121.05,86.76,178.24l97.61-103.94c-21.24-27.44-36.56-54.78-36.56-79.77
			c0-38.94,31.46-95.11,59.27-127.19c27.81-32.09,101.73-108.31,101.73-108.31C1259.6,655.33,1211.81,609.08,1202.27,600.58z"/>
		<path class="st0" d="M1262.41,947.14c0,33.26-27.13,70.7-59.27,106.98c-0.09-0.1-0.17-0.2-0.26-0.29l0.22,0.29
			c0,0-51.61,62.28-93.65,102.76c-42.03,40.48-187.96,167.86-226.28,204.29c-15.77,15-20.17,35.16-20.17,50.18
			c0,33.26,16.77,71.9,83.5,71.9c14.38,0,30.74-4.96,48.42-13.88c52.78-26.64,303.78-310.49,303.78-310.49
			c60.71-67.04,111.52-131.17,111.52-206.26c0-77.15-36.22-147.9-82.62-211.5l-103.37,108.27
			C1246.21,882.7,1262.41,917.38,1262.41,947.14z"/>
		<path class="st0" d="M1410.43,1468.4c17.68,8.92,34.04,13.88,48.42,13.88c66.73,0,83.5-38.64,83.5-71.9
			c0-15.02-4.4-35.18-20.17-50.18c-31.08-29.55-132.85-118.85-192.66-173.17l-100.55,105.61
			C1300.8,1369.97,1382.79,1454.45,1410.43,1468.4z"/>
		<path class="st0" d="M1200.34,1351.88c-39.69,0-71.87,32.18-71.87,71.87v147.63h147.58v-147.63c0-39.69-32.18-71.87-71.87-71.87
			H1200.34z"/>
		<path class="st0" d="M316.25,595.95v857.07c0,154.63,125.35,279.98,279.98,279.98h856.75c154.63,0,279.98-125.35,279.98-279.98
			V595.95c0-154.63-125.35-279.98-279.98-279.98l-856.75,0C441.6,315.96,316.25,441.32,316.25,595.95z M1421.69,1650.12H627.53
			c-126.14,0-228.4-102.26-228.4-228.4v-794.1c0-126.14,102.26-228.4,228.4-228.4h794.17c126.14,0,228.4,102.26,228.4,228.4v794.1
			C1650.09,1547.86,1547.84,1650.12,1421.69,1650.12z"/>
	</g>
	<g>
		<g class="st1">
			<path class="st2" d="M485.12,724.1c-5.7,0-10.48-1.92-14.33-5.78c-3.86-3.85-5.78-8.62-5.78-14.33c0-5.69,1.92-10.47,5.78-14.33
				c3.85-3.85,8.62-5.78,14.33-5.78h20.11c5.69,0,10.47,1.93,14.33,5.78c3.85,3.86,5.78,8.63,5.78,14.33
				c0,5.7-1.93,10.48-5.78,14.33c-3.86,3.86-8.63,5.78-14.33,5.78H485.12z M535.89,874.39c-4.02-4.02-6.03-8.8-6.03-14.33
				c0-5.53,2.01-10.3,6.03-14.33l14.07-14.07c4.02-4.02,8.71-6.03,14.07-6.03c5.36,0,10.05,2.01,14.07,6.03
				c4.02,4.02,6.03,8.8,6.03,14.32c0,5.53-2.01,10.3-6.03,14.33l-14.07,14.07c-3.69,3.69-8.29,5.53-13.82,5.53
				C544.68,879.92,539.91,878.08,535.89,874.39z M578.61,575.82c-4.02,4.02-8.8,6.03-14.32,6.03c-5.53,0-10.3-2.01-14.33-6.03
				l-14.07-14.07c-3.69-3.68-5.53-8.29-5.53-13.82s1.84-10.3,5.53-14.33c4.02-4.02,8.8-6.03,14.33-6.03c5.53,0,10.3,2.01,14.33,6.03
				l14.07,14.07c4.02,4.02,6.03,8.72,6.03,14.07C584.64,567.11,582.63,571.8,578.61,575.82z M706.78,844.73
				c-18.77,0-36.69-3.52-53.78-10.56c-17.09-7.04-32.34-17.25-45.74-30.66c-13.41-13.4-23.62-28.65-30.66-45.74
				c-7.04-17.09-10.56-35.01-10.56-53.78c0-17.09,2.84-33.43,8.54-49.01c5.69-15.58,14.07-29.73,25.13-42.47
				c4.35-4.69,9.72-6.28,16.08-4.77c6.36,1.51,10.89,5.62,13.57,12.31c7.04,18.43,15.83,35.86,26.39,52.27
				c10.56,16.42,22.87,31.67,36.94,45.74c14.07,14.07,29.32,26.39,45.74,36.94c16.41,10.56,33.84,19.35,52.27,26.39
				c6.7,2.69,10.81,7.21,12.31,13.57c1.51,6.37-0.09,11.73-4.78,16.08c-12.74,11.06-26.89,19.44-42.47,25.13
				C740.21,841.89,723.87,844.73,706.78,844.73z M818.87,748.22c-5.36-1.67-9.22-5.1-11.56-10.3c-2.35-5.19-3.02-10.63-2.01-16.34
				c3.02-16.08,2.01-31.92-3.02-47.5c-5.03-15.58-13.41-29.23-25.13-40.96c-11.73-11.73-25.22-20.02-40.46-24.88
				c-15.25-4.85-30.75-5.95-46.49-3.27c-5.7,1.01-11.06,0.34-16.08-2.01c-5.03-2.34-8.54-6.2-10.56-11.56
				c-2.01-5.36-1.76-10.56,0.75-15.58s6.45-8.21,11.81-9.55c23.12-5.03,46.24-4.27,69.36,2.26c23.12,6.53,43.39,18.52,60.82,35.94
				c17.09,17.09,28.98,37.19,35.69,60.32c6.7,23.12,7.54,46.24,2.51,69.36c-1.34,5.7-4.52,9.89-9.55,12.57
				C829.93,749.4,824.57,749.91,818.87,748.22z M706.28,523.04c-5.7,0-10.48-1.92-14.33-5.78c-3.86-3.85-5.78-8.62-5.78-14.33
				v-20.11c0-5.69,1.92-10.47,5.78-14.33c3.85-3.85,8.62-5.78,14.33-5.78c5.69,0,10.47,1.93,14.33,5.78
				c3.85,3.86,5.78,8.63,5.78,14.33v20.11c0,5.7-1.93,10.48-5.78,14.33C716.75,521.12,711.98,523.04,706.28,523.04z M706.28,945.26
				c-5.7,0-10.48-1.92-14.33-5.78c-3.86-3.85-5.78-8.62-5.78-14.33v-20.11c0-5.69,1.92-10.47,5.78-14.33
				c3.85-3.85,8.62-5.78,14.33-5.78c5.69,0,10.47,1.93,14.33,5.78c3.85,3.86,5.78,8.63,5.78,14.33v20.11
				c0,5.7-1.93,10.48-5.78,14.33C716.75,943.33,711.98,945.26,706.28,945.26z M876.68,874.39c-4.02,4.02-8.8,6.03-14.33,6.03
				s-10.3-2.01-14.33-6.03l-14.07-14.07c-4.02-4.02-6.03-8.71-6.03-14.07c0-5.36,2.01-10.05,6.03-14.07s8.8-6.03,14.33-6.03
				c5.53,0,10.3,2.01,14.33,6.03l14.07,14.07c3.68,3.69,5.53,8.29,5.53,13.82C882.2,865.59,880.36,870.37,876.68,874.39z
				 M834.45,576.32c-4.02-4.02-6.03-8.8-6.03-14.33c0-5.53,2.01-10.3,6.03-14.33l14.07-14.07c3.68-3.68,8.29-5.53,13.82-5.53
				s10.3,1.85,14.33,5.53c4.02,4.02,6.03,8.8,6.03,14.33s-2.01,10.3-6.03,14.33l-14.07,14.07c-4.02,4.02-8.72,6.03-14.07,6.03
				C843.16,582.35,838.48,580.34,834.45,576.32z M907.34,724.1c-5.7,0-10.48-1.92-14.33-5.78c-3.86-3.85-5.78-8.62-5.78-14.33
				c0-5.69,1.92-10.47,5.78-14.33c3.85-3.85,8.62-5.78,14.33-5.78h20.11c5.69,0,10.47,1.93,14.33,5.78
				c3.85,3.86,5.78,8.63,5.78,14.33c0,5.7-1.93,10.48-5.78,14.33c-3.86,3.86-8.63,5.78-14.33,5.78H907.34z"/>
		</g>
	</g>
	<g class="st1">
		<path class="st2" d="M485.12,724.1c-5.7,0-10.48-1.92-14.33-5.78c-3.86-3.85-5.78-8.62-5.78-14.33c0-5.69,1.92-10.47,5.78-14.33
			c3.85-3.85,8.62-5.78,14.33-5.78h20.11c5.69,0,10.47,1.93,14.33,5.78c3.85,3.86,5.78,8.63,5.78,14.33c0,5.7-1.93,10.48-5.78,14.33
			c-3.86,3.86-8.63,5.78-14.33,5.78H485.12z M535.89,874.39c-4.02-4.02-6.03-8.8-6.03-14.33c0-5.53,2.01-10.3,6.03-14.33
			l14.07-14.07c4.02-4.02,8.71-6.03,14.07-6.03c5.36,0,10.05,2.01,14.07,6.03c4.02,4.02,6.03,8.8,6.03,14.32
			c0,5.53-2.01,10.3-6.03,14.33l-14.07,14.07c-3.69,3.69-8.29,5.53-13.82,5.53C544.68,879.92,539.91,878.08,535.89,874.39z
			 M578.61,575.82c-4.02,4.02-8.8,6.03-14.32,6.03c-5.53,0-10.3-2.01-14.33-6.03l-14.07-14.07c-3.69-3.68-5.53-8.29-5.53-13.82
			s1.84-10.3,5.53-14.33c4.02-4.02,8.8-6.03,14.33-6.03c5.53,0,10.3,2.01,14.33,6.03l14.07,14.07c4.02,4.02,6.03,8.72,6.03,14.07
			C584.64,567.11,582.63,571.8,578.61,575.82z M706.78,844.73c-18.77,0-36.69-3.52-53.78-10.56c-17.09-7.04-32.34-17.25-45.74-30.66
			c-13.41-13.4-23.62-28.65-30.66-45.74c-7.04-17.09-10.56-35.01-10.56-53.78c0-17.09,2.84-33.43,8.54-49.01
			c5.69-15.58,14.07-29.73,25.13-42.47c4.35-4.69,9.72-6.28,16.08-4.77c6.36,1.51,10.89,5.62,13.57,12.31
			c7.04,18.43,15.83,35.86,26.39,52.27c10.56,16.42,22.87,31.67,36.94,45.74c14.07,14.07,29.32,26.39,45.74,36.94
			c16.41,10.56,33.84,19.35,52.27,26.39c6.7,2.69,10.81,7.21,12.31,13.57c1.51,6.37-0.09,11.73-4.78,16.08
			c-12.74,11.06-26.89,19.44-42.47,25.13C740.21,841.89,723.87,844.73,706.78,844.73z M818.87,748.22
			c-5.36-1.67-9.22-5.1-11.56-10.3c-2.35-5.19-3.02-10.63-2.01-16.34c3.02-16.08,2.01-31.92-3.02-47.5
			c-5.03-15.58-13.41-29.23-25.13-40.96c-11.73-11.73-25.22-20.02-40.46-24.88c-15.25-4.85-30.75-5.95-46.49-3.27
			c-5.7,1.01-11.06,0.34-16.08-2.01c-5.03-2.34-8.54-6.2-10.56-11.56c-2.01-5.36-1.76-10.56,0.75-15.58s6.45-8.21,11.81-9.55
			c23.12-5.03,46.24-4.27,69.36,2.26c23.12,6.53,43.39,18.52,60.82,35.94c17.09,17.09,28.98,37.19,35.69,60.32
			c6.7,23.12,7.54,46.24,2.51,69.36c-1.34,5.7-4.52,9.89-9.55,12.57C829.93,749.4,824.57,749.91,818.87,748.22z M706.28,523.04
			c-5.7,0-10.48-1.92-14.33-5.78c-3.86-3.85-5.78-8.62-5.78-14.33v-20.11c0-5.69,1.92-10.47,5.78-14.33
			c3.85-3.85,8.62-5.78,14.33-5.78c5.69,0,10.47,1.93,14.33,5.78c3.85,3.86,5.78,8.63,5.78,14.33v20.11c0,5.7-1.93,10.48-5.78,14.33
			C716.75,521.12,711.98,523.04,706.28,523.04z M706.28,945.26c-5.7,0-10.48-1.92-14.33-5.78c-3.86-3.85-5.78-8.62-5.78-14.33
			v-20.11c0-5.69,1.92-10.47,5.78-14.33c3.85-3.85,8.62-5.78,14.33-5.78c5.69,0,10.47,1.93,14.33,5.78
			c3.85,3.86,5.78,8.63,5.78,14.33v20.11c0,5.7-1.93,10.48-5.78,14.33C716.75,943.33,711.98,945.26,706.28,945.26z M876.68,874.39
			c-4.02,4.02-8.8,6.03-14.33,6.03s-10.3-2.01-14.33-6.03l-14.07-14.07c-4.02-4.02-6.03-8.71-6.03-14.07
			c0-5.36,2.01-10.05,6.03-14.07s8.8-6.03,14.33-6.03c5.53,0,10.3,2.01,14.33,6.03l14.07,14.07c3.68,3.69,5.53,8.29,5.53,13.82
			C882.2,865.59,880.36,870.37,876.68,874.39z M834.45,576.32c-4.02-4.02-6.03-8.8-6.03-14.33c0-5.53,2.01-10.3,6.03-14.33
			l14.07-14.07c3.68-3.68,8.29-5.53,13.82-5.53s10.3,1.85,14.33,5.53c4.02,4.02,6.03,8.8,6.03,14.33s-2.01,10.3-6.03,14.33
			l-14.07,14.07c-4.02,4.02-8.72,6.03-14.07,6.03C843.16,582.35,838.48,580.34,834.45,576.32z M907.34,724.1
			c-5.7,0-10.48-1.92-14.33-5.78c-3.86-3.85-5.78-8.62-5.78-14.33c0-5.69,1.92-10.47,5.78-14.33c3.85-3.85,8.62-5.78,14.33-5.78
			h20.11c5.69,0,10.47,1.93,14.33,5.78c3.85,3.86,5.78,8.63,5.78,14.33c0,5.7-1.93,10.48-5.78,14.33
			c-3.86,3.86-8.63,5.78-14.33,5.78H907.34z"/>
	</g>
	<g>
		<g class="st1">
			<path class="st2" d="M706.28,884.94c-50.6,0-93.41-17.51-128.42-52.53c-35.02-35.01-52.53-77.82-52.53-128.42
				c0-46.24,15.08-86.37,45.24-120.38c30.16-34.01,68.69-53.86,115.61-59.56c4.35-0.67,8.21-0.08,11.56,1.76
				c3.35,1.85,6.03,4.27,8.04,7.29c2.01,3.02,3.09,6.53,3.27,10.56c0.17,4.02-1.09,7.88-3.77,11.56
				c-5.7,8.72-9.97,17.93-12.82,27.65c-2.85,9.72-4.27,19.94-4.27,30.66c0,30.16,10.56,55.79,31.67,76.9s46.75,31.67,76.9,31.67
				c10.38,0,20.69-1.51,30.91-4.52c10.22-3.02,19.35-7.2,27.39-12.57c3.68-2.34,7.45-3.43,11.31-3.27c3.85,0.17,7.29,1.09,10.3,2.76
				c3.35,1.68,5.95,4.19,7.79,7.54c1.84,3.35,2.43,7.37,1.76,12.06c-4.7,46.24-24.38,84.62-59.06,115.1
				C792.48,869.7,752.19,884.94,706.28,884.94z"/>
		</g>
	</g>
	<g class="st1">
		<path class="st2" d="M706.28,884.94c-50.6,0-93.41-17.51-128.42-52.53c-35.02-35.01-52.53-77.82-52.53-128.42
			c0-46.24,15.08-86.37,45.24-120.38c30.16-34.01,68.69-53.86,115.61-59.56c4.35-0.67,8.21-0.08,11.56,1.76
			c3.35,1.85,6.03,4.27,8.04,7.29c2.01,3.02,3.09,6.53,3.27,10.56c0.17,4.02-1.09,7.88-3.77,11.56c-5.7,8.72-9.97,17.93-12.82,27.65
			c-2.85,9.72-4.27,19.94-4.27,30.66c0,30.16,10.56,55.79,31.67,76.9s46.75,31.67,76.9,31.67c10.38,0,20.69-1.51,30.91-4.52
			c10.22-3.02,19.35-7.2,27.39-12.57c3.68-2.34,7.45-3.43,11.31-3.27c3.85,0.17,7.29,1.09,10.3,2.76c3.35,1.68,5.95,4.19,7.79,7.54
			c1.84,3.35,2.43,7.37,1.76,12.06c-4.7,46.24-24.38,84.62-59.06,115.1C792.48,869.7,752.19,884.94,706.28,884.94z"/>
	</g>
	<g class="st1">
		<path class="st2" d="M505.23,724.1c-5.7,0-10.48-1.92-14.33-5.78c-3.86-3.85-5.78-8.62-5.78-14.33c0-5.69,1.92-10.47,5.78-14.33
			c3.85-3.85,8.62-5.78,14.33-5.78h40.21c5.69,0,10.47,1.93,14.33,5.78c3.85,3.86,5.78,8.63,5.78,14.33c0,5.7-1.93,10.48-5.78,14.33
			c-3.86,3.86-8.63,5.78-14.33,5.78H505.23z M557,853.28c-4.02-4.02-6.03-8.88-6.03-14.58c0-5.69,2.01-10.38,6.03-14.07l21.61-21.11
			c4.02-3.68,8.8-5.53,14.33-5.53c5.53,0,10.13,1.85,13.82,5.53c4.02,3.69,5.95,8.29,5.78,13.82c-0.17,5.53-2.1,10.3-5.78,14.33
			l-21.11,21.61c-3.69,4.02-8.38,5.95-14.07,5.78C565.87,858.89,561.02,856.97,557,853.28z M578.61,604.47L557,583.36
			c-4.02-3.68-5.95-8.37-5.78-14.07c0.17-5.69,2.09-10.56,5.78-14.58c4.02-4.02,8.88-6.03,14.58-6.03c5.69,0,10.38,2.01,14.07,6.03
			l21.11,21.61c3.68,4.02,5.53,8.72,5.53,14.07c0,5.36-1.85,10.05-5.53,14.07c-3.69,4.02-8.29,5.95-13.82,5.78
			C587.41,610.09,582.63,608.16,578.61,604.47z M706.28,804.52c-27.82,0-51.52-9.8-71.12-29.4s-29.4-43.31-29.4-71.12
			c0-27.81,9.8-51.52,29.4-71.12c19.6-19.6,43.31-29.4,71.12-29.4c27.81,0,51.52,9.8,71.12,29.4c19.6,19.6,29.4,43.31,29.4,71.12
			c0,27.82-9.8,51.52-29.4,71.12C757.8,794.72,734.09,804.52,706.28,804.52z M706.28,563.25c-5.7,0-10.48-1.92-14.33-5.78
			c-3.86-3.85-5.78-8.62-5.78-14.33v-40.21c0-5.69,1.92-10.47,5.78-14.33c3.85-3.85,8.62-5.78,14.33-5.78
			c5.69,0,10.47,1.93,14.33,5.78c3.85,3.86,5.78,8.63,5.78,14.33v40.21c0,5.7-1.93,10.48-5.78,14.33
			C716.75,561.33,711.98,563.25,706.28,563.25z M706.28,925.15c-5.7,0-10.48-1.92-14.33-5.78c-3.86-3.85-5.78-8.62-5.78-14.33
			v-40.21c0-5.69,1.92-10.47,5.78-14.33c3.85-3.85,8.62-5.78,14.33-5.78c5.69,0,10.47,1.93,14.33,5.78
			c3.85,3.86,5.78,8.63,5.78,14.33v40.21c0,5.7-1.93,10.48-5.78,14.33C716.75,923.23,711.98,925.15,706.28,925.15z M805.8,604.47
			c-4.02-3.68-5.95-8.29-5.78-13.82c0.17-5.53,2.09-10.3,5.78-14.33l21.11-21.61c3.68-4.02,8.37-5.95,14.07-5.78
			c5.69,0.17,10.56,2.1,14.58,5.78c4.02,4.02,6.03,8.88,6.03,14.58c0,5.7-2.01,10.39-6.03,14.07l-21.61,21.11
			c-4.02,3.69-8.72,5.53-14.07,5.53C814.51,610,809.83,608.16,805.8,604.47z M826.91,853.28l-21.11-21.61
			c-3.69-4.02-5.53-8.8-5.53-14.33c0-5.53,1.84-10.13,5.53-13.82c3.68-4.02,8.29-5.95,13.82-5.78c5.53,0.17,10.3,2.1,14.33,5.78
			l21.61,21.11c4.02,3.69,5.95,8.38,5.78,14.07c-0.17,5.7-2.1,10.56-5.78,14.58c-4.02,4.02-8.88,6.03-14.58,6.03
			C835.29,859.31,830.6,857.3,826.91,853.28z M867.13,724.1c-5.7,0-10.48-1.92-14.33-5.78c-3.86-3.85-5.78-8.62-5.78-14.33
			c0-5.69,1.92-10.47,5.78-14.33c3.85-3.85,8.62-5.78,14.33-5.78h40.21c5.69,0,10.47,1.93,14.33,5.78
			c3.85,3.86,5.78,8.63,5.78,14.33c0,5.7-1.93,10.48-5.78,14.33c-3.86,3.86-8.63,5.78-14.33,5.78H867.13z"/>
	</g>
	<path class="st0" d="M985.35,685.9c0-23.12-7.63-43.31-22.87-60.57c-15.25-17.25-34.43-27.22-57.55-29.91
		c0-39.21-13.66-72.46-40.96-99.77c-27.32-27.31-60.57-40.96-99.77-40.96c-31.84,0-60.32,9.55-85.45,28.65
		c-25.13,19.1-41.89,44.07-50.26,74.89c-25.47,5.7-46.08,18.77-61.82,39.21c-12.9,16.74-20.51,35.39-22.84,55.95
		c-24,5.82-44.02,18.54-60.04,38.19c-16.26,19.94-24.38,42.98-24.38,69.11c0,30.83,10.72,56.97,32.17,78.41
		c21.44,21.45,47.58,32.17,78.41,32.17h241.27c25.13,0,46.49-8.87,64.09-26.64c17.59-17.76,26.39-39.21,26.39-64.34
		c0-1.39-0.04-2.78-0.1-4.16c22.23-1.45,41.35-10.15,57.35-26.15C976.55,732.39,985.35,711.03,985.35,685.9z M846.92,816.48
		c-9.72,9.72-21.61,14.58-35.69,14.58H569.97c-19.44,0-36.02-6.86-49.76-20.61c-13.74-13.74-20.61-30.32-20.61-49.76
		c0-19.43,6.86-36.02,20.61-49.76c13.74-13.74,30.32-20.61,49.76-20.61c16.41,0,30.99,5.11,43.73,15.33
		c12.73,10.23,20.94,22.87,24.63,37.95c1.34,5.03,3.77,9.13,7.29,12.31c3.52,3.19,7.62,4.78,12.31,4.78c6.7,0,12.14-2.26,16.34-6.79
		c4.19-4.52,5.61-9.63,4.27-15.33c-4.7-22.45-15.25-41.63-31.67-57.55c-16.42-15.91-36.02-25.71-58.81-29.4
		c7.7-18.09,19.77-32.92,36.19-44.48c16.41-11.56,35.18-17.34,56.3-17.34c27.81,0,51.52,9.8,71.12,29.4
		c19.6,19.6,29.4,43.31,29.4,71.12v40.21h30.16c14.07,0,25.96,4.86,35.69,14.58c9.72,9.72,14.58,21.61,14.58,35.69
		C861.5,794.87,856.63,806.77,846.92,816.48z"/>
</g>
</svg>
